<?xml version="1.0" standalone="no"?>
<!DOCTYPE svg PUBLIC "-//W3C//DTD SVG 20010904//EN"
 "http://www.w3.org/TR/2001/REC-SVG-20010904/DTD/svg10.dtd">
<svg version="1.0" xmlns="http://www.w3.org/2000/svg"
 width="648.000000pt" height="193.000000pt" viewBox="0 0 648.000000 193.000000"
 preserveAspectRatio="xMidYMid meet">

<g transform="translate(0.000000,193.000000) scale(0.100000,-0.100000)"
fill="#000000" stroke="none">
<path d="M1585 1795 c-19 -18 -25 -35 -25 -66 0 -37 56 -137 492 -885 l493
-844 107 0 c60 0 108 2 108 4 0 2 -21 40 -46 83 -222 373 -984 1686 -984 1694
0 6 107 8 282 7 l281 -3 233 -400 c128 -220 236 -401 241 -402 4 -1 48 67 98
152 49 85 92 155 95 155 7 -1 280 -467 280 -479 0 -6 -13 -32 -29 -58 -79
-132 -431 -742 -431 -748 0 -3 12 -5 27 -3 25 3 48 37 225 343 170 292 238
428 238 474 0 8 -272 477 -284 489 -3 3 -32 9 -63 13 -85 12 -112 -4 -163 -91
-27 -47 -47 -70 -57 -68 -9 2 -98 145 -198 318 -118 204 -191 319 -206 327
-18 9 -112 13 -357 13 l-333 0 -24 -25z"/>
<path d="M4043 1798 c-11 -13 -107 -174 -213 -358 -185 -321 -257 -445 -459
-792 -89 -153 -91 -159 -91 -221 0 -62 2 -66 106 -245 l106 -182 148 0 147 0
86 148 c47 81 192 331 323 557 130 226 311 537 401 692 89 155 163 290 163
300 0 10 7 31 15 47 19 35 19 41 -1 60 -13 14 -60 16 -363 16 l-348 0 -20 -22z"/>
</g>
</svg>
